<svg xmlns="http://www.w3.org/2000/svg" viewBox="0 0 64 64">
	<defs>
		<linearGradient id="g" x1="0" y1="0" x2="1" y2="1">
			<stop offset="0" stop-color="#2563eb" />
			<stop offset="1" stop-color="#8b5cf6" />
		</linearGradient>
	</defs>
	<rect width="64" height="64" rx="14" fill="#0f172a" />
	<rect x="6" y="6" width="52" height="52" rx="12" fill="url(#g)" opacity="0.85" />
	<path d="M22 44h20c3 0 5-1 6-4l3-10c1-3-1-4-4-4h-4l-3-8c-1-2-3-4-6-4h-6c-3 0-5 2-6 4l-3 8h-4c-3 0-5 1-4 4l3 10c1 3 3 4 6 4Zm10-7a5 5 0 1 1 0-10 5 5 0 0 1 0 10Z" fill="white" fill-opacity="0.92" />
</svg>
